<svg width="19" height="19" viewBox="0 0 19 19" fill="none" xmlns="http://www.w3.org/2000/svg">
<g clip-path="url(#clip0_18_168)">
<g clip-path="url(#clip1_18_168)">
<g clip-path="url(#clip2_18_168)">
<path d="M14.6429 7.99924C14.6429 8.93004 14.3281 9.79054 13.6987 10.5807C13.0692 11.3709 12.2104 11.9953 11.1222 12.454C10.034 12.9127 8.85045 13.1421 7.57143 13.1421C6.99554 13.1421 6.40625 13.0885 5.80357 12.9814C4.97321 13.5707 4.04241 13.9992 3.01116 14.2671C2.77009 14.3274 2.48214 14.3809 2.14732 14.4278H2.11719C2.04353 14.4278 1.97489 14.401 1.91127 14.3475C1.84766 14.2939 1.80915 14.2236 1.79576 14.1365C1.78906 14.1164 1.78571 14.0947 1.78571 14.0712C1.78571 14.0478 1.78739 14.026 1.79074 14.0059C1.79408 13.9858 1.80078 13.9658 1.81083 13.9457L1.83594 13.8954L1.87109 13.8402L1.91127 13.79L1.95647 13.7398L1.99665 13.6946C2.03013 13.6544 2.10714 13.5707 2.22768 13.4434C2.34821 13.3162 2.43527 13.2174 2.48884 13.1471C2.54241 13.0768 2.61775 12.9797 2.71484 12.8558C2.81194 12.7319 2.89565 12.603 2.96596 12.4691C3.03627 12.3352 3.10491 12.1879 3.17188 12.0271C2.34152 11.545 1.68862 10.9524 1.21317 10.2492C0.737723 9.54612 0.5 8.79612 0.5 7.99924C0.5 7.06844 0.814732 6.20795 1.4442 5.41777C2.07366 4.62759 2.93248 4.00315 4.02065 3.54444C5.10882 3.08574 6.29241 2.85638 7.57143 2.85638C8.85045 2.85638 10.034 3.08574 11.1222 3.54444C12.2104 4.00315 13.0692 4.62759 13.6987 5.41777C14.3281 6.20795 14.6429 7.06844 14.6429 7.99924ZM18.5 10.5707C18.5 11.3742 18.2623 12.1259 17.7868 12.8257C17.3114 13.5255 16.6585 14.1164 15.8281 14.5986C15.8951 14.7593 15.9637 14.9066 16.034 15.0405C16.1044 15.1745 16.1881 15.3034 16.2852 15.4273C16.3823 15.5511 16.4576 15.6482 16.5112 15.7185C16.5647 15.7889 16.6518 15.8876 16.7723 16.0149C16.8929 16.1421 16.9699 16.2258 17.0033 16.266C17.01 16.2727 17.0234 16.2877 17.0435 16.3112C17.0636 16.3346 17.0787 16.3514 17.0887 16.3614C17.0988 16.3715 17.1122 16.3882 17.1289 16.4116C17.1456 16.4351 17.1574 16.4535 17.1641 16.4669L17.1892 16.5171L17.2093 16.5774L17.2143 16.6427L17.2042 16.7079C17.1842 16.8017 17.1406 16.8754 17.0737 16.9289C17.0067 16.9825 16.933 17.0059 16.8527 16.9992C16.5179 16.9524 16.2299 16.8988 15.9888 16.8385C14.9576 16.5707 14.0268 16.1421 13.1964 15.5528C12.5938 15.66 12.0045 15.7135 11.4286 15.7135C9.61384 15.7135 8.03348 15.2716 6.6875 14.3876C7.07589 14.4144 7.37054 14.4278 7.57143 14.4278C8.64955 14.4278 9.68415 14.2771 10.6752 13.9758C11.6663 13.6745 12.5502 13.2425 13.327 12.68C14.1641 12.064 14.8069 11.3542 15.2556 10.5506C15.7042 9.74701 15.9286 8.89656 15.9286 7.99924C15.9286 7.48362 15.8516 6.97469 15.6975 6.47246C16.5614 6.9479 17.2444 7.54388 17.7467 8.2604C18.2489 8.97692 18.5 9.74701 18.5 10.5707Z" fill="white"/>
</g>
</g>
</g>
<defs>
<clipPath id="clip0_18_168">
<rect width="18" height="18" fill="white" transform="translate(0.5 0.284973)"/>
</clipPath>
<clipPath id="clip1_18_168">
<rect width="18" height="18" fill="white" transform="translate(0.5 0.284973)"/>
</clipPath>
<clipPath id="clip2_18_168">
<rect width="18" height="18" fill="white" transform="translate(0.5 0.284973)"/>
</clipPath>
</defs>
</svg>
