<svg width="19" height="19" viewBox="0 0 19 19" fill="none" xmlns="http://www.w3.org/2000/svg">
<g clip-path="url(#clip0_18_151)">
<g clip-path="url(#clip1_18_151)">
<g clip-path="url(#clip2_18_151)">
<path d="M17.2027 3.60844L16.0262 4.78499L13.5716 2.33044L14.7482 1.15389C14.8622 1.03975 14.9977 0.949201 15.1468 0.887423C15.2959 0.825644 15.4557 0.793847 15.6171 0.793847C15.7784 0.793847 15.9382 0.825644 16.0873 0.887423C16.2364 0.949201 16.3719 1.03975 16.486 1.15389L17.2027 1.87062C17.3168 1.98471 17.4074 2.12016 17.4692 2.26926C17.5309 2.41835 17.5627 2.57815 17.5627 2.73953C17.5627 2.90091 17.5309 3.06072 17.4692 3.20981C17.4074 3.3589 17.3168 3.49435 17.2027 3.60844ZM1.34102 9.28499C1.54551 9.28377 1.74221 9.20641 1.89273 9.06799C2.04325 8.92956 2.1368 8.74002 2.15511 8.53635C2.34215 6.72317 3.19436 5.0436 4.54718 3.82193C5.9 2.60027 7.65749 1.92316 9.48029 1.92135C9.68074 1.92135 9.87711 1.92953 10.0694 1.94589L11.5012 0.514076C10.8385 0.360717 10.1605 0.283851 9.48029 0.284986C7.24599 0.28518 5.09162 1.11634 3.43613 2.61682C1.78064 4.11731 0.742377 6.17987 0.523242 8.40339C0.513984 8.51612 0.528295 8.62955 0.565263 8.73644C0.602232 8.84334 0.661049 8.94137 0.737971 9.02429C0.814893 9.10722 0.908235 9.17322 1.01206 9.2181C1.11588 9.26299 1.22791 9.28576 1.34102 9.28499ZM18.4377 10.1641C18.4661 9.87503 18.4804 9.58199 18.4807 9.28499C18.4825 8.3791 18.3459 7.47826 18.0757 6.61362L16.7216 7.96771C16.8041 8.40193 16.8452 8.843 16.8443 9.28499C16.8443 9.52226 16.8321 9.75544 16.8116 9.98862C16.8116 9.98862 16.8075 9.98862 16.8116 9.99271C16.8104 10.005 16.8075 10.0164 16.8063 10.0283L16.8051 10.0336C16.8034 10.052 16.7989 10.0696 16.7969 10.088C16.7732 10.3003 16.7437 10.5106 16.7012 10.7168C16.6958 10.7508 16.686 10.7827 16.6795 10.8158C16.6476 10.9668 16.6107 11.1153 16.5698 11.2625C16.5641 11.2822 16.5604 11.3022 16.5539 11.3223C16.5338 11.3934 16.5109 11.463 16.4884 11.5329C16.4557 11.6352 16.4205 11.7358 16.3833 11.8365L16.3534 11.9195C16.281 12.1079 16.2012 12.2934 16.1141 12.4755C16.0834 12.5485 16.0486 12.6196 16.0098 12.6886C15.9951 12.7213 15.9742 12.7533 15.9566 12.7856C15.9292 12.8363 15.9002 12.8858 15.8715 12.9357C15.3418 13.8637 14.6167 14.6655 13.7466 15.2857C12.8764 15.9058 11.882 16.3296 10.8319 16.5275C10.5925 16.5705 10.3511 16.6015 10.1087 16.6204C9.91247 16.6377 9.71568 16.6471 9.51874 16.6486H9.51793C7.7918 16.6496 6.12045 16.0427 4.79702 14.9345C4.83451 14.9035 4.87754 14.8799 4.92383 14.865L6.71565 14.3782C6.79343 14.3565 6.86198 14.31 6.91082 14.2458C6.95966 14.1815 6.98611 14.103 6.98611 14.0223C6.98611 13.9415 6.95966 13.863 6.91082 13.7988C6.86198 13.7345 6.79343 13.688 6.71565 13.6663L2.96429 12.6354L1.43838 12.2182C1.37484 12.197 1.30674 12.1936 1.24141 12.2083C1.17607 12.2229 1.11597 12.2551 1.06758 12.3014C1.01919 12.3477 0.984338 12.4063 0.966778 12.471C0.949218 12.5356 0.949614 12.6038 0.967924 12.6682L2.44474 17.9495C2.46681 18.0272 2.51371 18.0955 2.57826 18.144C2.64282 18.1924 2.72148 18.2184 2.80221 18.218C2.88293 18.2175 2.96129 18.1906 3.02528 18.1414C3.08928 18.0922 3.13539 18.0233 3.15656 17.9454L3.64747 16.1454C3.65088 16.1343 3.65498 16.1234 3.65974 16.1127C4.52863 16.8585 5.53255 17.4307 6.61706 17.7982V17.8186C6.77661 17.8718 6.93615 17.9209 7.09979 17.9618C7.16284 17.982 7.22704 17.9984 7.29206 18.0109C7.30222 18.0168 7.31328 18.0209 7.32479 18.0232C7.3657 18.0314 7.40661 18.0436 7.45161 18.0518C7.46211 18.0554 7.47326 18.0568 7.48433 18.0559C7.49373 18.0628 7.5055 18.0658 7.51706 18.0641L7.63161 18.0886C7.70933 18.105 7.79115 18.1213 7.87297 18.1377C7.88001 18.1375 7.88702 18.1389 7.89342 18.1418C7.9957 18.1623 8.10206 18.1786 8.20842 18.1909C8.2327 18.1956 8.25733 18.1984 8.28206 18.1991C8.3557 18.2114 8.43342 18.2195 8.50706 18.2277C8.53547 18.2325 8.56418 18.2352 8.59297 18.2359C8.59706 18.24 8.59706 18.24 8.60115 18.2359L8.61302 18.2367C8.68338 18.2437 8.75415 18.2482 8.82492 18.2531C8.90674 18.26 8.98815 18.2686 9.07161 18.2727C9.15343 18.2768 9.23524 18.2809 9.32115 18.2809C9.38661 18.285 9.45206 18.285 9.51752 18.285H9.51874C9.66602 18.285 9.80838 18.2809 9.95115 18.2727C10.062 18.2666 10.1721 18.2576 10.2813 18.2486C12.3762 18.0718 14.3406 17.1581 15.8253 15.6697C15.8318 15.6631 15.8396 15.6574 15.8462 15.6504C15.8527 15.6435 15.8584 15.6361 15.8654 15.6296C16.0418 15.4512 16.2107 15.2658 16.3718 15.0732C16.3894 15.0519 16.4095 15.0331 16.4271 15.0123C16.4726 14.9623 16.515 14.9096 16.5539 14.8543C16.6349 14.7504 16.7126 14.6433 16.7895 14.5357C16.7997 14.5197 16.8141 14.5054 16.8239 14.4886C16.8852 14.4068 16.9425 14.325 16.9957 14.2391L17.0223 14.1978C17.1336 14.0268 17.2358 13.85 17.3352 13.6709C17.3696 13.6079 17.4089 13.5465 17.4416 13.4823L17.4424 13.4806C17.4907 13.389 17.5365 13.2965 17.5815 13.2024C17.5999 13.1644 17.6204 13.1284 17.638 13.0895C17.67 13.0256 17.6987 12.9601 17.7239 12.8932C17.7382 12.8604 17.7513 12.8257 17.7656 12.7921C18.1207 11.9551 18.3472 11.0693 18.4373 10.1645L18.4377 10.1641Z" fill="white"/>
<path d="M6.58398 11.7727L7.02621 8.87589L12.7535 3.14862L15.208 5.60317L9.48076 11.3304L6.58398 11.7727Z" fill="white"/>
</g>
</g>
</g>
<defs>
<clipPath id="clip0_18_151">
<rect width="18" height="18" fill="white" transform="translate(0.5 0.284973)"/>
</clipPath>
<clipPath id="clip1_18_151">
<rect width="18" height="18" fill="white" transform="translate(0.5 0.284973)"/>
</clipPath>
<clipPath id="clip2_18_151">
<rect width="17.9611" height="18" fill="white" transform="translate(0.519531 0.284973)"/>
</clipPath>
</defs>
</svg>
