<svg width="19" height="19" viewBox="0 0 19 19" fill="none" xmlns="http://www.w3.org/2000/svg">
<g clip-path="url(#clip0_18_161)">
<g clip-path="url(#clip1_18_161)">
<g clip-path="url(#clip2_18_161)">
<path d="M9.66068 17.3207C9.66068 17.2135 9.60711 17.16 9.49996 17.16C9.10488 17.16 8.76503 17.0177 8.48043 16.7331C8.19584 16.4485 8.05354 16.1086 8.05354 15.7135C8.05354 15.6064 7.99997 15.5528 7.89282 15.5528C7.78568 15.5528 7.73211 15.6064 7.73211 15.7135C7.73211 16.2024 7.90454 16.6192 8.24941 16.9641C8.59427 17.309 9.01113 17.4814 9.49996 17.4814C9.60711 17.4814 9.66068 17.4278 9.66068 17.3207ZM17.8571 14.4278C17.8571 14.776 17.7299 15.0774 17.4754 15.3318C17.2209 15.5863 16.9196 15.7135 16.5714 15.7135H12.0714C12.0714 16.4234 11.8203 17.0294 11.318 17.5316C10.8158 18.0339 10.2098 18.285 9.49996 18.285C8.79014 18.285 8.18412 18.0339 7.68188 17.5316C7.17965 17.0294 6.92854 16.4234 6.92854 15.7135H2.42854C2.08032 15.7135 1.77898 15.5863 1.52452 15.3318C1.27005 15.0774 1.14282 14.776 1.14282 14.4278C1.47764 14.1466 1.78233 13.8519 2.05688 13.5439C2.33144 13.2359 2.61604 12.8358 2.91068 12.3436C3.20532 11.8514 3.45476 11.3207 3.65901 10.7515C3.86325 10.1823 4.03066 9.49256 4.16124 8.68229C4.29182 7.87203 4.35711 7.00149 4.35711 6.07069C4.35711 5.05283 4.74885 4.10696 5.53233 3.23308C6.31581 2.35919 7.34372 1.8285 8.61604 1.641C8.56247 1.51377 8.53568 1.38319 8.53568 1.24926C8.53568 0.981402 8.62943 0.753723 8.81693 0.566223C9.00443 0.378723 9.23211 0.284973 9.49996 0.284973C9.76782 0.284973 9.9955 0.378723 10.183 0.566223C10.3705 0.753723 10.4643 0.981402 10.4643 1.24926C10.4643 1.38319 10.4375 1.51377 10.3839 1.641C11.6562 1.8285 12.6841 2.35919 13.4676 3.23308C14.2511 4.10696 14.6428 5.05283 14.6428 6.07069C14.6428 7.00149 14.7081 7.87203 14.8387 8.68229C14.9693 9.49256 15.1367 10.1823 15.3409 10.7515C15.5452 11.3207 15.7946 11.8514 16.0893 12.3436C16.3839 12.8358 16.6685 13.2359 16.943 13.5439C17.2176 13.8519 17.5223 14.1466 17.8571 14.4278Z" fill="white"/>
</g>
</g>
</g>
<defs>
<clipPath id="clip0_18_161">
<rect width="18" height="18" fill="white" transform="translate(0.5 0.284973)"/>
</clipPath>
<clipPath id="clip1_18_161">
<rect width="18" height="18" fill="white" transform="translate(0.5 0.284973)"/>
</clipPath>
<clipPath id="clip2_18_161">
<rect width="18" height="18" fill="white" transform="translate(0.5 0.284973)"/>
</clipPath>
</defs>
</svg>
