<svg width="19" height="18" viewBox="0 0 19 18" fill="none" xmlns="http://www.w3.org/2000/svg">
<path d="M17.4153 4.1032C16.9667 4.75945 16.4242 5.3186 15.7881 5.78066C15.7948 5.87441 15.7981 6.01503 15.7981 6.20253C15.7981 7.07307 15.6709 7.94193 15.4164 8.80912C15.162 9.6763 14.7753 10.5083 14.2563 11.3052C13.7373 12.1021 13.1196 12.8069 12.403 13.4196C11.6865 14.0323 10.8227 14.5212 9.81152 14.8861C8.80036 15.2511 7.71889 15.4336 6.5671 15.4336C4.75237 15.4336 3.09166 14.9481 1.58496 13.9771C1.81934 14.0039 2.0805 14.0173 2.36844 14.0173C3.87514 14.0173 5.21777 13.5552 6.39634 12.6311C5.69322 12.6177 5.06376 12.4018 4.50795 11.9832C3.95215 11.5647 3.57045 11.0307 3.36286 10.3811C3.58384 10.4146 3.78809 10.4313 3.97559 10.4313C4.26353 10.4313 4.54813 10.3945 4.82938 10.3208C4.07938 10.1668 3.45829 9.79349 2.9661 9.20086C2.47391 8.60822 2.22782 7.92017 2.22782 7.13668V7.09651C2.68318 7.35097 3.17201 7.48825 3.69434 7.50834C3.25237 7.21369 2.90081 6.82865 2.63965 6.3532C2.37849 5.87776 2.24791 5.36213 2.24791 4.80633C2.24791 4.21704 2.39523 3.67128 2.68987 3.16905C3.50014 4.16682 4.48619 4.96537 5.64802 5.5647C6.80985 6.16403 8.05371 6.49717 9.3796 6.56414C9.32603 6.30967 9.29925 6.06191 9.29925 5.82084C9.29925 4.92351 9.61565 4.15845 10.2485 3.52563C10.8813 2.89282 11.6463 2.57642 12.5437 2.57642C13.4812 2.57642 14.2713 2.91793 14.9142 3.60097C15.6441 3.46034 16.3305 3.19918 16.9734 2.81749C16.7256 3.58758 16.2501 4.18356 15.547 4.60543C16.1698 4.53847 16.7926 4.37106 17.4153 4.1032Z" fill="white"/>
</svg>
