<svg width="19" height="18" viewBox="0 0 19 18" fill="none" xmlns="http://www.w3.org/2000/svg">
<path d="M16.3604 1.29071C16.5948 1.29071 16.7957 1.37442 16.9631 1.54183C17.1305 1.70924 17.2142 1.91013 17.2142 2.14451V15.8655C17.2142 16.0999 17.1305 16.3008 16.9631 16.4682C16.7957 16.6356 16.5948 16.7193 16.3604 16.7193H12.433V10.7427H14.4318L14.7332 8.41236H12.433V6.92576C12.433 6.55076 12.5116 6.26951 12.669 6.08201C12.8264 5.89451 13.1327 5.80076 13.5881 5.80076L14.8135 5.79071V3.71147C14.3917 3.6512 13.7957 3.62107 13.0256 3.62107C12.1149 3.62107 11.3866 3.88892 10.8409 4.42464C10.2951 4.96035 10.0223 5.71705 10.0223 6.69473V8.41236H8.01332V10.7427H10.0223V16.7193H2.63944C2.40506 16.7193 2.20417 16.6356 2.03676 16.4682C1.86935 16.3008 1.78564 16.0999 1.78564 15.8655V2.14451C1.78564 1.91013 1.86935 1.70924 2.03676 1.54183C2.20417 1.37442 2.40506 1.29071 2.63944 1.29071H16.3604Z" fill="white"/>
</svg>
