<svg width="19" height="18" viewBox="0 0 19 18" fill="none" xmlns="http://www.w3.org/2000/svg">
<path d="M18.1236 4.64412C18.022 4.26114 17.8214 3.91159 17.5421 3.6305C17.2629 3.34942 16.9146 3.14665 16.5323 3.04253C15.125 2.66412 9.5 2.66412 9.5 2.66412C9.5 2.66412 3.875 2.66412 2.46773 3.04253C2.0854 3.14665 1.73715 3.34942 1.45785 3.6305C1.17856 3.91159 0.978035 4.26114 0.876364 4.64412C0.5 6.05753 0.5 9.00503 0.5 9.00503C0.5 9.00503 0.5 11.9525 0.876364 13.3659C0.978035 13.7489 1.17856 14.0985 1.45785 14.3796C1.73715 14.6606 2.0854 14.8634 2.46773 14.9675C3.875 15.3459 9.5 15.3459 9.5 15.3459C9.5 15.3459 15.125 15.3459 16.5323 14.9675C16.9146 14.8634 17.2629 14.6606 17.5421 14.3796C17.8214 14.0985 18.022 13.7489 18.1236 13.3659C18.5 11.9525 18.5 9.00503 18.5 9.00503C18.5 9.00503 18.5 6.05753 18.1236 4.64412ZM7.65909 11.6815V6.32856L12.3636 9.00503L7.65909 11.6815Z" fill="white"/>
</svg>
