<svg width="19" height="18" viewBox="0 0 19 18" fill="none" xmlns="http://www.w3.org/2000/svg">
<path d="M8.17029 7.82214C7.75151 7.82214 7.4209 8.18949 7.4209 8.63765C7.4209 9.08582 7.75886 9.45316 8.17029 9.45316C8.58906 9.45316 8.91967 9.08582 8.91967 8.63765C8.92702 8.18949 8.58906 7.82214 8.17029 7.82214ZM10.8519 7.82214C10.4331 7.82214 10.1025 8.18949 10.1025 8.63765C10.1025 9.08582 10.4405 9.45316 10.8519 9.45316C11.2707 9.45316 11.6013 9.08582 11.6013 8.63765C11.6013 8.18949 11.2707 7.82214 10.8519 7.82214Z" fill="white"/>
<path d="M14.4223 1.65808H4.57741C3.74721 1.65808 3.07129 2.334 3.07129 3.17155V13.1046C3.07129 13.9422 3.74721 14.6181 4.57741 14.6181H12.9088L12.5195 13.2589L13.4599 14.1332L14.3488 14.956L15.9284 16.352V3.17155C15.9284 2.334 15.2525 1.65808 14.4223 1.65808ZM11.5864 11.2532C11.5864 11.2532 11.3219 10.9373 11.1015 10.6581C12.0639 10.3862 12.4313 9.7838 12.4313 9.7838C12.1301 9.98216 11.8435 10.1218 11.5864 10.2173C11.219 10.3716 10.8664 10.4744 10.5211 10.5332C9.81578 10.6654 9.16925 10.6287 8.61823 10.5258C8.19945 10.445 7.83945 10.3275 7.53823 10.2099C7.36925 10.1438 7.18557 10.063 7.0019 9.96012C6.97986 9.94543 6.95782 9.93808 6.93578 9.92339C6.92108 9.91604 6.91374 9.90869 6.90639 9.90135C6.77415 9.82788 6.70068 9.77645 6.70068 9.77645C6.70068 9.77645 7.05333 10.3642 7.98639 10.6434C7.76598 10.9226 7.49415 11.2532 7.49415 11.2532C5.87047 11.2018 5.25333 10.1364 5.25333 10.1364C5.25333 7.77073 6.31129 5.85318 6.31129 5.85318C7.36925 5.05971 8.37578 5.08175 8.37578 5.08175L8.44925 5.16992C7.1268 5.55196 6.517 6.13237 6.517 6.13237C6.517 6.13237 6.67864 6.0442 6.95047 5.91931C7.7366 5.574 8.36108 5.47849 8.61823 5.45645C8.66231 5.4491 8.69904 5.44175 8.74313 5.44175C9.19129 5.38298 9.69823 5.36829 10.2272 5.42706C10.9252 5.50788 11.6746 5.71359 12.4386 6.13237C12.4386 6.13237 11.8582 5.58135 10.6092 5.19931L10.7121 5.08175C10.7121 5.08175 11.7186 5.05971 12.7766 5.85318C12.7766 5.85318 13.8346 7.77073 13.8346 10.1364C13.8346 10.1364 13.2101 11.2018 11.5864 11.2532Z" fill="white"/>
</svg>
