<svg width="17" height="17" viewBox="0 0 17 17" fill="none" xmlns="http://www.w3.org/2000/svg">
<path d="M13.5078 7.45001C13.5078 8.88439 13.0422 10.2094 12.2578 11.2844L16.2141 15.2438C16.6047 15.6344 16.6047 16.2688 16.2141 16.6594C15.8234 17.05 15.1891 17.05 14.7984 16.6594L10.8422 12.7C9.76719 13.4875 8.44219 13.95 7.00781 13.95C3.41719 13.95 0.507812 11.0406 0.507812 7.45001C0.507812 3.85939 3.41719 0.950012 7.00781 0.950012C10.5984 0.950012 13.5078 3.85939 13.5078 7.45001ZM7.00781 11.95C7.59876 11.95 8.18392 11.8336 8.72989 11.6075C9.27585 11.3813 9.77193 11.0499 10.1898 10.632C10.6077 10.2141 10.9391 9.71805 11.1653 9.17209C11.3914 8.62612 11.5078 8.04096 11.5078 7.45001C11.5078 6.85906 11.3914 6.2739 11.1653 5.72794C10.9391 5.18197 10.6077 4.6859 10.1898 4.26803C9.77193 3.85017 9.27585 3.5187 8.72989 3.29255C8.18392 3.06641 7.59876 2.95001 7.00781 2.95001C6.41686 2.95001 5.8317 3.06641 5.28574 3.29255C4.73977 3.5187 4.2437 3.85017 3.82583 4.26803C3.40797 4.6859 3.0765 5.18197 2.85035 5.72794C2.62421 6.2739 2.50781 6.85906 2.50781 7.45001C2.50781 8.04096 2.62421 8.62612 2.85035 9.17209C3.0765 9.71805 3.40797 10.2141 3.82583 10.632C4.2437 11.0499 4.73977 11.3813 5.28574 11.6075C5.8317 11.8336 6.41686 11.95 7.00781 11.95Z" fill="#75838B"/>
</svg>
