<svg width="22" height="21" viewBox="0 0 22 21" fill="none" xmlns="http://www.w3.org/2000/svg">
<path d="M11.0001 0.930023C11.6641 0.930023 12.3126 0.996429 12.9454 1.11752C13.254 1.17612 13.7969 1.3558 14.0938 1.90268C14.1719 2.04721 14.2344 2.19955 14.2735 2.36362L14.6368 3.86752C14.6915 4.09409 15.0743 4.31674 15.2969 4.25034L16.7813 3.81284C16.9376 3.76596 17.0977 3.74252 17.2579 3.73862C17.8868 3.71909 18.3126 4.1058 18.5196 4.34018C19.3829 5.32065 20.0469 6.47299 20.4688 7.71127C20.5704 8.00815 20.6876 8.56284 20.3633 9.09409C20.2774 9.23471 20.1719 9.36752 20.0508 9.48471L18.9297 10.5511C18.7657 10.7074 18.7657 11.1566 18.9297 11.3128L20.0508 12.3792C20.1719 12.4964 20.2774 12.6292 20.3633 12.7699C20.6836 13.3011 20.5665 13.8558 20.4688 14.1527C20.0469 15.391 19.3829 16.5394 18.5196 17.5238C18.3126 17.7581 17.8829 18.1449 17.2579 18.1253C17.0977 18.1214 16.9376 18.0941 16.7813 18.0511L15.2969 17.6097C15.0743 17.5433 14.6915 17.766 14.6368 17.9925L14.2735 19.4964C14.2344 19.6605 14.1719 19.8167 14.0938 19.9574C13.793 20.5042 13.2501 20.68 12.9454 20.7425C12.3126 20.8636 11.6641 20.93 11.0001 20.93C10.336 20.93 9.68755 20.8636 9.05474 20.7425C8.74615 20.6839 8.20318 20.5042 7.9063 19.9574C7.82818 19.8128 7.76568 19.6605 7.72662 19.4964L7.36334 17.9925C7.30865 17.766 6.92584 17.5433 6.70318 17.6097L5.2188 18.0472C5.06255 18.0941 4.9024 18.1175 4.74224 18.1214C4.11334 18.141 3.68755 17.7542 3.48052 17.5199C2.62115 16.5394 1.95318 15.3871 1.5313 14.1488C1.42974 13.8519 1.31255 13.2972 1.63677 12.766C1.72271 12.6253 1.82818 12.4925 1.94927 12.3753L3.07037 11.3089C3.23443 11.1527 3.23443 10.7035 3.07037 10.5472L1.94537 9.4808C1.82427 9.36362 1.7188 9.2308 1.63287 9.09018C1.31255 8.55893 1.42974 8.00424 1.5313 7.71127C1.95318 6.47299 2.61724 5.32455 3.48052 4.34018C3.68755 4.1058 4.11724 3.71909 4.74224 3.73862C4.9024 3.74252 5.06255 3.76987 5.2188 3.81284L6.70318 4.25034C6.92584 4.31674 7.30865 4.09409 7.36334 3.86752L7.72662 2.36362C7.76568 2.19955 7.82818 2.0433 7.9063 1.90268C8.20709 1.3558 8.75005 1.18002 9.05474 1.11752C9.68755 0.996429 10.336 0.930023 11.0001 0.930023ZM9.51959 2.93784L9.18755 4.30893C8.88287 5.57065 7.41802 6.4144 6.17193 6.05112L4.82427 5.65268C4.17974 6.40659 3.67193 7.28159 3.3399 8.21909L4.36334 9.19174C5.30084 10.0824 5.30084 11.7777 4.36334 12.6683L3.3399 13.641C3.67193 14.5785 4.17974 15.4535 4.82427 16.2074L6.17584 15.8089C7.41802 15.4417 8.88677 16.2894 9.19146 17.5511L9.52349 18.9222C10.4844 19.098 11.5274 19.098 12.4883 18.9222L12.8204 17.5511C13.1251 16.2894 14.5899 15.4456 15.836 15.8089L17.1876 16.2074C17.8321 15.4535 18.3399 14.5785 18.6719 13.641L17.6485 12.6683C16.711 11.7777 16.711 10.0824 17.6485 9.19174L18.6719 8.21909C18.3399 7.28159 17.8321 6.40659 17.1876 5.65268L15.836 6.05112C14.5938 6.4183 13.1251 5.57065 12.8204 4.30893L12.4883 2.93784C11.5274 2.76205 10.4844 2.76205 9.52349 2.93784H9.51959ZM9.12505 10.93C9.12505 11.4273 9.3226 11.9042 9.67423 12.2558C10.0259 12.6075 10.5028 12.805 11.0001 12.805C11.4973 12.805 11.9742 12.6075 12.3259 12.2558C12.6775 11.9042 12.8751 11.4273 12.8751 10.93C12.8751 10.4327 12.6775 9.95583 12.3259 9.6042C11.9742 9.25257 11.4973 9.05502 11.0001 9.05502C10.5028 9.05502 10.0259 9.25257 9.67423 9.6042C9.3226 9.95583 9.12505 10.4327 9.12505 10.93ZM11.0001 14.68C10.0055 14.68 9.05167 14.2849 8.3484 13.5817C7.64514 12.8784 7.25005 11.9246 7.25005 10.93C7.25005 9.93546 7.64514 8.98163 8.3484 8.27837C9.05167 7.57511 10.0055 7.18002 11.0001 7.18002C11.9946 7.18002 12.9484 7.57511 13.6517 8.27837C14.355 8.98163 14.7501 9.93546 14.7501 10.93C14.7501 11.9246 14.355 12.8784 13.6517 13.5817C12.9484 14.2849 11.9946 14.68 11.0001 14.68Z" fill="#75838B"/>
</svg>
