<svg width="25" height="25" viewBox="0 0 25 25" fill="none" xmlns="http://www.w3.org/2000/svg">
<path d="M19.6718 7.21186C20.1124 6.77124 20.1124 6.05874 19.6718 5.6228C19.2312 5.18686 18.5187 5.18217 18.0827 5.6228L12.5046 11.2009L6.92178 5.61811C6.48115 5.17749 5.76865 5.17749 5.33271 5.61811C4.89678 6.05874 4.89209 6.77124 5.33271 7.20717L10.9108 12.7853L5.32803 18.3681C4.8874 18.8087 4.8874 19.5212 5.32803 19.9572C5.76865 20.3931 6.48115 20.3978 6.91709 19.9572L12.4952 14.379L18.078 19.9619C18.5187 20.4025 19.2312 20.4025 19.6671 19.9619C20.103 19.5212 20.1077 18.8087 19.6671 18.3728L14.089 12.7947L19.6718 7.21186Z" fill="black"/>
</svg>
