<svg width="41" height="42" viewBox="0 0 41 42" fill="none" xmlns="http://www.w3.org/2000/svg">
<path d="M27.514 19.6312C27.514 16.9838 26.5402 14.7191 24.5927 12.8373C22.6451 10.9555 20.3014 10.0146 17.5615 10.0146C14.8216 10.0146 12.4779 10.9555 10.5303 12.8373C8.58279 14.7191 7.60902 16.9838 7.60902 19.6312C7.60902 22.2786 8.58279 24.5432 10.5303 26.425C12.4779 28.3069 14.8216 29.2478 17.5615 29.2478C20.3014 29.2478 22.6451 28.3069 24.5927 26.425C26.5402 24.5432 27.514 22.2786 27.514 19.6312ZM38.8883 37.4906C38.8883 38.2347 38.6069 38.8787 38.0441 39.4225C37.4813 39.9663 36.8149 40.2382 36.0447 40.2382C35.245 40.2382 34.5785 39.9663 34.0453 39.4225L26.4255 32.0812C23.7744 33.8557 20.8198 34.743 17.5615 34.743C15.4437 34.743 13.4183 34.3459 11.4856 33.5516C9.55287 32.7574 7.88671 31.6841 6.48714 30.3318C5.08757 28.9795 3.9768 27.3695 3.15483 25.502C2.33286 23.6345 1.92188 21.6776 1.92188 19.6312C1.92188 17.5848 2.33286 15.6279 3.15483 13.7603C3.9768 11.8928 5.08757 10.2829 6.48714 8.93059C7.88671 7.57826 9.55287 6.50498 11.4856 5.71075C13.4183 4.91652 15.4437 4.51941 17.5615 4.51941C19.6794 4.51941 21.7047 4.91652 23.6374 5.71075C25.5702 6.50498 27.2363 7.57826 28.6359 8.93059C30.0355 10.2829 31.1462 11.8928 31.9682 13.7603C32.7902 15.6279 33.2012 17.5848 33.2012 19.6312C33.2012 22.7795 32.2829 25.6344 30.4465 28.196L38.0663 35.5587C38.6143 36.0881 38.8883 36.7321 38.8883 37.4906Z" fill="#979AA4"/>
</svg>
